<?xml version="1.0" standalone="no"?>
<!DOCTYPE svg PUBLIC "-//W3C//DTD SVG 20010904//EN"
 "http://www.w3.org/TR/2001/REC-SVG-20010904/DTD/svg10.dtd">
<svg version="1.0" xmlns="http://www.w3.org/2000/svg"
 width="225.000000pt" height="225.000000pt" viewBox="0 0 225.000000 225.000000"
 preserveAspectRatio="xMidYMid meet">
<metadata>
Created by potrace 1.14, written by Peter Selinger 2001-2017
</metadata>
<g transform="translate(0.000000,225.000000) scale(0.100000,-0.100000)"
fill="#000000" stroke="none">
<path d="M623 2236 c-29 -16 -33 -27 -33 -117 l0 -85 -84 1 c-116 1 -120 -3
-126 -118 l-5 -92 -70 -1 c-86 -1 -121 -9 -129 -29 -3 -9 -6 -405 -7 -882 0
-848 0 -866 19 -886 19 -19 37 -19 721 -19 596 0 704 2 723 14 19 13 22 24 23
104 l1 89 93 5 c101 5 124 18 120 70 0 14 -1 51 0 83 l1 57 85 0 c139 0 124
-106 124 904 0 818 -1 866 -18 887 l-18 22 -701 2 c-432 0 -709 -3 -719 -9z
m1335 -897 l2 -787 -41 -4 c-22 -2 -42 -1 -45 3 -2 4 -4 330 -4 724 l-1 717
-22 21 -22 22 -557 0 -558 0 0 47 0 47 623 -2 622 -2 3 -786z m-208 -211 c0
-518 -3 -788 -10 -789 -13 -2 -45 -2 -67 0 -17 1 -18 43 -18 726 0 665 -1 726
-17 741 -15 15 -65 17 -576 17 l-560 -1 -4 32 c-8 68 -63 63 627 63 l625 0 0
-789z m-215 -213 l0 -790 -625 0 -625 0 0 780 c0 429 1 785 2 790 2 7 217 10
626 10 l622 0 0 -790z"/>
<path d="M432 1478 c-7 -7 -8 -17 -2 -28 9 -16 44 -18 484 -16 261 0 477 4
481 8 4 3 4 16 0 27 -6 21 -9 21 -479 21 -343 0 -475 -3 -484 -12z"/>
<path d="M434 1322 c-16 -16 -8 -39 14 -44 9 -2 224 -3 476 -3 423 0 460 1
470 17 25 40 7 41 -480 42 -367 1 -470 -2 -480 -12z"/>
<path d="M433 1169 c-8 -8 -9 -18 -2 -31 9 -17 33 -18 477 -18 280 0 473 4
482 10 12 7 12 13 4 27 -10 17 -43 18 -480 21 -347 2 -473 -1 -481 -9z"/>
<path d="M543 1022 c-85 -2 -112 -6 -117 -17 -15 -40 2 -41 489 -41 431 1 469
2 479 18 7 12 7 21 0 28 -10 10 -597 19 -851 12z"/>
<path d="M435 858 c-7 -5 -11 -17 -8 -28 5 -20 14 -20 483 -20 437 0 478 1
484 17 4 9 2 21 -4 27 -13 13 -932 16 -955 4z"/>
<path d="M431 691 c-8 -13 -7 -22 2 -28 9 -7 882 -11 955 -4 8 0 12 10 10 24
l-3 22 -477 3 c-460 2 -478 2 -487 -17z"/>
<path d="M440 552 c-5 -2 -10 -15 -10 -28 0 -20 5 -24 33 -25 39 0 872 0 905
0 26 1 40 27 23 44 -9 9 -134 12 -476 12 -255 0 -469 -1 -475 -3z"/>
<path d="M430 385 c-31 -38 -5 -41 332 -41 l323 1 0 25 0 25 -321 3 c-277 2
-323 0 -334 -13z"/>
</g>
</svg>
